<svg height="25" viewBox="0 0 510.447 510.447" width="25" xmlns="http://www.w3.org/2000/svg"><path d="M27.449 204.505c26.644 7.563 37.329-20.866 15.37-35.139-22.982-12.5-40.708 26.472-15.37 35.139zm24.767-69.788c25.795 16.001 42.686-26.924 16.444-37.375-24.573-8.662-37.923 24.345-16.444 37.375zm41.166-59.7c18.92 19.243 48.472-10.256 26.607-28.349-18.658-15.765-45.309 10.67-26.607 28.349zM203.008 23.65c-8.585-22.796-51.804-12.348-42.202 12.706 8.789 25.678 53.266 14.556 42.202-12.706zM21.412 278.334c23.709-.824 23.372-36.96.002-38.426-28.405-2.567-28.698 40.572-.002 38.426zm271.145-244.7c74.022 2.295 135.137 57.986 168.772 121.16-20.451 6.577-42.894 4.767-64.607 5.834-8.217-.033-8.799 12.75-.605 13.487 23.883 2.218 48.8 5.921 72.967.152 35.622-8.096 38.696-50.617 35.956-80.382-1.202-13.789.507-38.278-19.85-35.29-28.44 4.245 8.19 63.668-11.725 88.674C437.427 63.955 352.398-6.335 257.389 6.169c-8.526.973-14.544 9.034-13.039 17.487 5.305 22.077 32.462 6.852 48.207 9.978zm19.915 453.864c10.892 25.574 52.354 9.372 44.159-16.661-8.973-26.202-54.759-8.477-44.159 16.661zm76.404-35.158c14.572 15.161 36.049 6.221 35.98-14.62-4.294-34.79-58.457-14.176-35.98 14.62zm66.153-75.66c-22.826-7.696-35.374 17.945-14.369 31.195 25.64 14.685 39.62-19.411 14.369-31.195zm31.158-60.385l.316.103c-22.58-6.845-34.285 28.536-11.739 35.825 25.984 11.933 39.484-31.032 11.423-35.928zm6.858-74.506c-28.31-2.717-29.797 40.874-.752 38.971 23.58-.683 24.564-37.533.752-38.971zM244.414 488.765c-83.694 5.468-137.367-65.652-183.588-125.695 16.627-7.353 40.702-4.22 56.574-.697 16.038 3.591 18.755-21.71 2.396-21.695-14.418.362-28.651-.574-43.628.234-60.74-.723-59.887 63.057-61.042 107.765-.521 9.143 7.593 16.793 16.701 15.69 8.281-.923 14.237-8.408 13.279-16.685-1.48-22.033-6.746-46.457.125-67.377 32.439 75.501 117.55 128.519 199.568 125.282 10.745-.248 10.299-17.079-.385-16.822zm92.989-185.946c-5.443-9.25-12.854-16.478-20.553-23.205-3.195-3.49-22.673-17.361-21.847-22.444 37.583-26.5 70.97-86.025 8.106-103.773-42.277-17.996-129.947-13.859-122.718 48.518 8.054 26.212 39.301 35.712 50.014 58.658-12.217 24.388-50.106 36.716-48.532 68.479 3.133 39.375 48.49 32.867 76.945 32.462 37.274 4.903 106.387-6.002 78.585-58.695zm-28.693 38.864c-24.576 7.196-51.556-.522-77.166 2.697-18.792 1.232-40.888-7.338-26.115-28.605 13.145-18.128 43.969-30.655 45.804-55.349-1.364-29.822-41.296-40.859-48.139-66.757 11.605-34.641 84.682-22.135 105.455-3.129.567 10.423-8.497 20.553-15.068 28.608-74.162 65.722 29.292 64.465 31.493 112.189-4.323 4.955-9.862 8.335-16.264 10.346z" fill="#a37b39"/></svg>