<svg fill="#a37b39" xmlns="http://www.w3.org/2000/svg" width="64" height="64"><path d="M31.965 2.002c-.01 0-.02.003-.031.004-.026.002-.05.01-.077.014a.984.984 0 00-.283.085c-.016.008-.033.006-.049.014l-26 14a.999.999 0 00-.222.166c-.014.014-.023.031-.035.045a.994.994 0 00-.2.326.98.98 0 00-.068.34V47c0 .088.013.177.035.26.03.11.083.212.149.306.015.023.031.042.048.063a.98.98 0 00.258.23l.006.002.004.004L31.488 62.86l.004.002.004.002.004.002c.045.026.094.04.14.059.034.013.066.032.1.04h.002c.085.024.17.036.256.036H32a.995.995 0 00.254-.033c.017-.005.032-.014.049-.02.062-.02.125-.042.183-.074l27-15c.005-.002.006-.007.01-.01.01-.005.02-.006.03-.011.091-.058.168-.133.236-.213.017-.021.031-.043.047-.065a.988.988 0 00.138-.271l.014-.037A.994.994 0 0060 47V17c0-.007-.004-.013-.004-.02a.998.998 0 00-.107-.418.985.985 0 00-.153-.224c-.015-.017-.025-.037-.04-.053a.988.988 0 00-.235-.172l-27-14c-.041-.021-.086-.031-.129-.047-.025-.008-.047-.018-.072-.025a1.006 1.006 0 00-.295-.039zM33 4.645l23.797 12.337-9.781 4.893L33 14.4V4.645zm-2 .03V14.4l-13.994 7.463L8.1 17.006 31 4.676zm1 11.46L44.875 23 32 29.865 19.125 23 32 16.135zm26 2.484v26.764l-10-5V23.617l10-4.998zm-51 .067l9 4.908V26a1 1 0 102 0v-1.332L31 31.6v15.732L18 40.4V38a1 1 0 10-2 0v2.406l-9 4.908V18.686zm39 5.982V41c0 .05.02.093.027.14.01.073.018.144.043.212.023.06.06.11.094.164.034.055.063.11.107.158.049.052.108.09.166.13.04.03.07.068.116.09l10.304 5.153L33 60.3V31.6l13-6.932zM17 29a1 1 0 00-1 1v4a1 1 0 102 0v-4a1 1 0 00-1-1zm26.107 11.898a.998.998 0 00-.793 1.467l.942 1.766a1 1 0 101.764-.942l-.942-1.765a.999.999 0 00-.97-.526zm-26.103 1.239L31 49.6v10.67L8.041 47.023l8.963-4.886zm21.935.984a1 1 0 00-.793 1.467l.942 1.766a1.004 1.004 0 001.353.412c.487-.26.673-.867.413-1.354l-.942-1.766a1.003 1.003 0 00-.973-.525zm-4.166 2.22a1 1 0 00-.793 1.469l.942 1.764a1 1 0 101.764-.941l-.942-1.766a.998.998 0 00-.97-.525z"/></svg>