<svg fill="#a37b39" xmlns="http://www.w3.org/2000/svg" width="50" height="50"><path d="M32.246 22.112c-2.048 0-2.783 2.66-2.783 5.763 0 3.264.801 6.389 2.593 6.389.768 0 1.761-.4 2.305-2.639.096-.288.125-.875.125-.875v-4.563c0-.319.032-.711 0-1.062-.128-1.6-1.056-3.013-2.24-3.013zM44 4H6c-1.103 0-2 .897-2 2v38c0 1.103.897 2 2 2h38c1.103 0 2-.897 2-2V6c0-1.103-.897-2-2-2zM26.5 36H24l-4.243-8.127L15.5 36h-2.464l5.482-10.5L13.036 15H15.5l4.257 8.127L24 15h2.5L21 25.5 26.5 36zM37 32.625c0 1.056-.032 2.479 0 3.375h-2.5v-1.625c-.48 1.088-1.388 1.937-3.019 1.937-2.624 0-4.481-3.316-4.481-8.437C27 22.372 29.303 20 31.703 20c1.12 0 2.19.564 2.797 1.875V14H37v18.625z"/></svg>